<?xml version="1.0" encoding="utf-8"?>
<svg version="1.1" id="Layer_1" xmlns="http://www.w3.org/2000/svg" xmlns:xlink="http://www.w3.org/1999/xlink" x="0px" y="0px"
	 viewBox="0 0 648 452" style="enable-background:new 0 0 648 452;" xml:space="preserve">
<title>The Do Book Co.</title>
<g>
	<path d="M77.3,219.1C75.5,235,73.8,250,71.9,265c-0.4,3.3-1.7,6.6-2.9,9.7c-2.5,6.3-8.7,7.8-14,8.6c-8.8,1.4-18,1.7-26.1-3.8
		c-4-2.8-7.6-5.8-9.1-10.7c-0.5-1.5-1.9-2.7-2.8-4.1c-3.4-5.1-5.5-10.6-5.5-16.8c0.1-8.3-1.7-16.8,1.2-24.9c1.2-3.3,3.7-6.1,5.8-8.9
		c1.4-1.9,3.3-3.3,4.6-5.3c2.4-3.7,1.4-5.1-1.2-8.4c-4.7-5.8-9.9-11-11.8-19.2c-2.5-10.3-1.1-20,1.2-29.6
		c3.2-12.9,11.2-22.8,23.7-27.8c8.1-3.2,16.3-2.9,24.8,0.9c13.9,6.1,14.9,17.6,14.7,30.1c-0.1,8.7,0,17.4-0.4,26.1
		c-0.2,4.2,1.9,5.5,5.6,5.6c4.3,0.1,8.6,0.1,12.9,0.2c6.7,0.2,13.5,0.3,20.2,0.7c3.1,0.2,4.5-0.6,4.3-4c-0.6-14.2-1-28.4-1.4-42.6
		c-0.4-11.7-0.5-23.5-1-35.2c-0.7-16-1.5-32-2.6-48c-0.5-7.6-2.1-15.2-3-22.7c-0.4-3.5-0.6-7-0.6-10.5c0-3.5,2.1-5.6,5.5-5.9
		c11.5-1.3,23-2.8,34.6-3.7c13.7-1.1,27.5-2,41.3-2.5c6.8-0.2,13.7,0.5,20.6,1.1c14.2,1.1,28.3,3.5,41.8,7.9
		c8.1,2.7,16.4,5.1,24.1,8.7c10.5,5.1,20.2,11.6,28,20.7c4.4,5.1,9.6,9.7,13.2,15.3c5.2,8,9.9,16.5,13.4,25.3c4,10,6.7,20.5,9.3,31
		c3.2,13.3,3,26.9,2.6,40.5c-0.7,22.8-6.3,44.6-14.7,65.6c-3.2,8.2-7.5,16.1-12.6,23.3c-9.7,13.6-21.7,24.8-38.2,29.7
		c-12.8,3.7-25.8,6.4-39.2,6.6c-10.3,0.1-20.6,1.1-30.9,1c-13.5,0-27.1-0.5-40.6-1.1c-7.1-0.3-14.3-1-21.4-1.8
		c-4.7-0.5-9.7-0.9-14.1-2.6c-6.2-2.4-9.2-8-11.1-14.2c-4-13.1-2.6-26.6-3.2-40c-0.4-9.6-0.6-10.9-11.8-10.1c-5.6,0.4-11.2,0-16.8,0
		C84.3,219.1,80.4,219.1,77.3,219.1z M172,120.2c1.1,11.1,1.7,21.3,3.2,31.3c2.2,14.6,4.7,29.2,7.7,43.7c1.5,7.1,5.4,12.3,14.1,12.5
		c7.8,0.1,15.5,1.8,23.3,2.1c11.3,0.4,22.7,0.5,33.7-2.9c2.9-0.9,6.4-2.7,7.8-5.1c4.1-7,7.9-14.3,10.6-21.9
		c7-19.4,5.3-39.1-0.8-58.3c-1.6-5.1-6-9.8-10-13.7c-7-7-16.1-10.6-25.4-14c-15.2-5.5-30.6-7-46.6-5.1c-8.1,1-13,5.2-14.7,12.8
		C173.5,107.9,172.9,114.5,172,120.2z M35.6,161.8c-0.1,0-0.2,0-0.3,0c0.3,2.6,0.6,5.1,0.9,7.7c0.5,3.6,2.3,6.1,6,6.7
		c3.3,0.5,8.7-2.1,9.3-5.1c0.9-4.7,1.6-9.5,1.4-14.2c-0.2-4.8-5.3-8.5-9.9-8.1c-5.1,0.4-7.2,3.1-7.5,9.1
		C35.6,159.2,35.6,160.5,35.6,161.8z M38.4,246.6c1.6,2.5,3.3,5.6,5.6,8.2c1.1,1.3,3.8,2.8,4.7,2.3c1.6-0.9,2.7-3.1,3.5-5
		c0.9-2,0.8-4.5,1.9-6.3c2.7-4.4,2.9-8.8-0.5-12.6c-1.8-2-4.7-3.6-7.4-4.1c-1.1-0.2-3.6,2.3-4.3,4.1
		C40.5,237.2,39.7,241.4,38.4,246.6z"/>
	<path d="M534.3,82.9c12.7-1.9,24.9-3.6,37.5-5.5c0-6.4-0.2-12.5,0-18.6c0.3-8.6,0.6-17.2,1.3-25.8c0.8-9.4,5.5-16.3,14.1-20.5
		c2.1-1,4.1-2.3,6.3-3.1c2.3-0.8,4.7-1.4,7.1-1.5c2.8-0.1,5.7,0.4,8.6,0.5c10.7,0.6,20.4,9.2,23,19.7c3.4,13.7,2.2,27.1-1.1,40.5
		c-0.7,2.7-2.4,5.7-4.5,7.5c-2.9,2.5-3.9,5.6-3.1,8.7c1.3,4.6,3.5,9.4,8.4,10.9c4.3,1.3,5.5,4.2,6.1,7.7c1.1,6.7,2.5,13.4,2.3,20.1
		c-0.2,7.6-1.8,15.2-3.1,22.8c-1.8,10.7-9.2,15.7-18.7,19.4c-8.5,3.3-16.5,4.2-25,1c-8.4-3.2-13.6-9-14.9-17.9
		c-1.2-8.2-2.4-16.5-3.3-24.8c-0.8-7.4-1.2-7.8-8.7-7.7c-8.7,0.1-17.4,0-26.5,0c0,9.9,0.1,19,0,28c-0.2,13-0.6,26.1-0.7,39.1
		c-0.1,7.4,0.5,14.9,0.2,22.3c-0.4,8.5-1,17.1-2.3,25.5c-0.8,5.6-2.6,11.2-4.5,16.5c-7.1,20-21.8,31.5-41.6,38
		c-10.3,3.4-20.6,1.9-30.9,2.5c-15.4,0.9-30.8,0.1-45.8-4c-9.5-2.6-18.7-6.5-28.2-9.1c-8-2.2-10.1-9.2-13.6-14.9
		c-6.7-10.9-11.2-22.9-13.8-35.5c-1.2-6.2-2.2-12.5-3.2-18.8c-1.2-7.9-2.5-15.9-3.2-23.9c-1-11.5-1.5-23.1-2.1-34.7
		c-0.5-10.4-1.3-20.8-1.2-31.2c0.1-7.1,1.2-14.2,2.2-21.3c1.6-10.8,3.1-21.6,5.4-32.3c1.3-6,4.2-11.7,6.4-17.5
		c1.7-4.3,3.5-8.7,5.5-12.9c0.7-1.5,1.9-2.8,3.2-3.8c4.8-3.5,9.3-7.6,14.6-10.1c6-2.9,12.6-5,19.2-6.3c21.4-4,43.1-2.6,64.6-1.4
		c10.4,0.6,20.3,3.2,30.1,6.4c6,2,11.2,5.4,14.8,10.8c10.1,15,16.1,31.4,18,49.4C533.6,79.2,534,81,534.3,82.9z M444.5,89.9
		c-0.1-0.3-0.2-0.7-0.2-1c-8.8,1.6-17.6,3.1-26.3,5c-2.8,0.6-6.3,1.8-7.8,3.9c-3.6,5.1-7,10.5-8.8,16.4c-1.7,5.5-1.9,11.6-1.8,17.4
		c0,8,1.2,16.1,1.2,24.1c-0.1,9.5,3.2,18.1,5.8,26.9c2.1,7.5,7.9,12.4,13.5,17.3c8.1,7.1,18.1,9.3,28.3,9.8
		c5.3,0.3,10.8-1.1,15.9-2.6c4-1.1,7.9-3.1,11.2-5.5c8-5.8,12.7-13.6,14.4-23.6c2.8-17,5.1-34,3.5-51.2c-0.7-7.6-2.8-15.1-9-20.2
		C472.8,97,460.1,90,444.5,89.9z M593,43.7c1.2,3.9,2.3,7.9,3.5,11.8c0.9,2.9,3.3,5,6,4.3c2.2-0.5,4.7-2.6,5.7-4.6
		c1.7-3.6,2.5-7.7,3.5-11.6c1.1-4.2-2-9.5-6.1-10.7C599.6,31.1,593.7,36.3,593,43.7z M615.4,128.2c0.1,0,0.2,0,0.4-0.1
		c-0.6-2.5-1.1-5.1-1.8-7.5c-1.1-3.8-4-5.5-7.7-5.4c-3.6,0.1-7.4,1.1-7.9,5.4c-0.4,3.9,0.3,7.9,0.4,11.9c0,4.2,2.5,6.7,5.8,8.5
		c5.1,2.8,10.5-0.7,10.5-6.6C615.1,132.4,615.3,130.3,615.4,128.2z"/>
	<path d="M121.3,403.9c0-10.5,0.1-21.1,0-31.6c-0.1-8.9-0.3-17.9-0.4-26.8c0-5.7,0-11.4,0.4-17.1c0.2-3.4,1-6.8,1.8-10.1
		c1.1-4.4,5.2-6,8.6-6.2c9-0.5,18.2-1,26.9,0.5c9.6,1.7,15.6,8.8,18.1,18.3c2.4,9.1,3.7,18.4,2.2,27.6c-1.2,7.4-3.6,14.9-9.6,20.3
		c-0.3,0.3-0.5,0.6-0.8,0.9c-4.3,5.2-4.4,5.3,1.9,7.9c4.6,1.9,7,6,8.4,9.9c2.3,6.5,3.8,13.5,4.7,20.4c1.3,9.8-2.2,16.7-11.5,21.2
		c-6.6,3.2-13.6,4.2-20.8,3.8c-4.2-0.2-8.4,0-12.5-0.1c-3.7-0.1-7.3-0.6-9.9-3.8c-0.1-0.1-0.2-0.2-0.3-0.3
		c-9.2-2.2-7.3-10.1-7.8-16.3c-0.5-6.2-0.1-12.5-0.1-18.8C120.8,403.9,121,403.9,121.3,403.9z M136.3,371c3.3-1.5,6.7-2.4,9.3-4.4
		c4.5-3.4,9.9-6.4,11.4-12.3c1.2-4.8,1.9-9.9,1.9-14.8c0-3.1-2.1-6-5.8-6.3c-4.1-0.3-8.3-0.3-12.5-0.5c-2.8-0.1-4.1,1-4.1,3.9
		c0,7.1-0.2,14.3-0.2,21.4C136.3,362.3,136.3,366.5,136.3,371z M162.5,412.2c-0.7-1.9-1.4-5.4-3.3-8c-5.5-7.8-11.9-9.8-21-7.2
		c-0.7,0.2-1.6,1.4-1.6,2.1c0.1,7.4,0.4,14.8,0.6,22.2c0.1,3.3,2.5,5.1,5.8,4.6c3.2-0.6,6.4-1.1,9.6-1.6
		C158.8,423.2,162.3,419.5,162.5,412.2z"/>
	<path d="M347.5,365.5c2.9-5.4,5.5-10.3,8.2-15.1c4.5-8.1,9.3-16,13.7-24.1c3.3-6,4.8-6.8,11.9-6.1c1.5,0.2,3-0.4,4.6-0.6
		c3.1-0.5,4.6,0.7,3.4,3.5c-2,4.8-4.4,9.6-7.1,14c-7.7,12.7-15.7,25.3-23.6,37.9c-0.7,1.1-1.1,2.3-1.5,3.2c1.1,1.9,2.1,3.4,2.9,5
		c4.1,8.2,8.3,16.3,12.3,24.5c1.8,3.6,3.3,7.3,4.8,11c2.5,5.8,5,11.7,7.3,17.6c0.5,1.4,0.5,3.5-0.2,4.6c-0.6,0.8-2.7,0.8-4.1,0.9
		c-1.1,0.1-2.3-0.4-3.5-0.3c-5.4,0.1-7.4-1.2-9.3-6.2c-1.1-2.9-1.9-6-3.3-8.7c-4.2-8.4-8.5-16.8-12.8-25.2c-0.5-1-0.9-2.1-1.9-4.3
		c-0.5,2-0.9,2.9-1,3.8c-0.7,13.5-1.4,27-2.1,40.5c-0.1,1.9-0.4,3.1-2.9,3c-4-0.1-8.1,0.6-12.1,0.6c-1,0-2.8-1.6-2.9-2.6
		c-0.5-5.3-0.7-10.6-0.8-15.8c-0.1-7.4,0.1-14.7,0-22.1c-0.1-8-1-16-0.2-23.9c0.6-6.3-0.6-12.3-0.7-18.4c-0.1-10-0.6-20-0.7-29.9
		c0-7.3,2.9-9.7,10.2-9.8c2.6,0,5.3-1.2,7.9-2.1c2.5-0.9,3.2,0.1,3.5,2.5c1,9.5,0.8,19,0.1,28.5C347.3,355.6,347.5,360,347.5,365.5z
		"/>
	<path d="M479.2,401.8c-0.5,3.2-0.8,6.4-1.7,9.4c-1.4,5.2-2.5,10.5-4.9,15.3c-2.2,4.6-4.8,9.4-9.9,11.8c-1.1,0.5-7.8,1.1-8.9,0.7
		c-0.2-0.1-0.5-0.3-0.6-0.2c-6.6,4-11.1-1.2-15.9-4c-5.2-3.1-8.4-7.9-10.1-13.7c-1.3-4.2-3-8.3-3.7-12.6c-2.3-15-3.7-30,0-45.1
		c2-8.2,3.3-16.5,5.2-24.7c2-8.4,5.3-16.3,10.6-23.1c0.9-1.1,2.6-1.5,3.8-2.4c7.2-5.7,13.7-1.7,20.6,1c10,3.9,10.4,12.6,11.5,21.1
		c0.4,3.3,0.7,6.7,1.4,10c1,5.2-0.8,7.5-6.2,7.7c-1.9,0.1-3.8,0.6-5.6,1.1c-3,0.8-4.2-1.1-3.9-3.3c0.9-5.5-2.7-9.6-3.8-14.5
		c-0.2-1.1-1.8-2.8-2.1-2.7c-1.3,0.5-2.9,1.4-3.5,2.6c-2.5,5.3-4.9,10.6-6.9,16c-4.2,11.3-4.5,23.1-3.6,35c0.3,4.6,0.6,9.1,1,13.7
		c0.4,4.6,0.9,9.3,1.4,13.9c0.4,4.4,3.8,6.2,7.2,6.4c2,0.1,4.3-2.5,6.2-4.3c3.9-3.7,4.5-8.8,5.7-13.7c1.5-6.1,4.9-7.6,10.6-5.3
		c0.6,0.3,1.1,0.9,1.7,1.4c1.1,1,2.1,2.1,3.2,3.1C478.5,402.2,478.9,402,479.2,401.8z"/>
	<path d="M226.4,438.5c-1.5,3.8-4.3,5.3-8.5,4.8c-1.7-0.2-3.4-0.2-5.1-0.1c-4,0.3-7.7,0.2-10.4-3.5c-2.3-3.1-4.9-5.8-7-9
		c-1.9-3-3.8-6.2-4.9-9.6c-2.8-8.6-1.7-17.5-0.6-26.2c0.9-6.7,1.9-13.3,3.1-19.9c0.4-1.9,1.7-3.7,2.8-5.4c2.3-3.4,4.3-7.1,7.1-10
		c2-2.2,5.1-3.4,7.7-5.2c6.9-4.8,13.8-0.6,20.6,0.3c2,0.3,3.7,2.6,5.7,3.9c5.2,3.4,8.2,7.5,9.6,14.1c1.5,7.5,3.6,14.9,2.8,22.6
		c-1.3,14.4-5.6,27.8-14.6,39.2C233.1,436.5,230.7,440.2,226.4,438.5z M233.2,391.4c-1.4-4.8-2.5-9.4-4.3-13.8
		c-0.6-1.6-2.6-2.8-4.2-3.7c-1.2-0.7-2.8-0.6-4.1-1.2c-4.8-2-6.9-1-8.3,4c-1.1,4-2,8.1-3.6,11.9c-4,9.7-0.8,18.5,2.9,27.3
		c1,2.3,2.7,3.2,5.4,2c2.3-1,5.1-1.2,7.3-2.3c2-1,4.8-2.6,5.2-4.4C231.3,404.7,232.1,398,233.2,391.4z"/>
	<path d="M289.9,353.7c2.9,0.2,5.2,0.6,7.5,0.5c5-0.3,6.9,3.6,9.8,6.4c3.9,3.9,5,8.7,7,13.6c3.3,8.1,3.7,16.1,3.7,24.3
		c0,5.3-0.1,10.7-0.1,16c0,0.4-0.2,0.7-0.4,1.1c-3.8,7.2-5.7,15.7-11.6,21.7c-4.3,4.4-9.3,8.4-16.3,7.5c-2.7-0.3-5.6-0.4-8.1-1.3
		c-2-0.8-3.6-2.6-5.3-4.1c-0.7-0.6-1-1.7-1.8-2.1c-6.4-3.1-8.4-9.7-12-15.1c-6.2-9.3-6.1-19.9-5.4-29.9c0.4-5.9,0.7-12.8,4-18.3
		c3.3-5.6,6.9-11.6,11.7-15.7C277.4,354.3,283.9,352.9,289.9,353.7z M292.2,419.5c3.7,0.8,6.7,0.4,5.9-4.4c-0.1-0.7,0.6-1.4,0.8-2.1
		c0.8-3.3,1.9-6.5,2.2-9.9c0.8-6.5,2.4-13-0.9-19.4c-0.2-0.4,0.2-1.1,0.1-1.5c-0.7-1.5-1.2-3.1-2.3-4.3c-1.2-1.3-3.1-2-4.4-3.2
		c-3-2.8-6.8-1.7-9,0c-1.9,1.5-6.5,3.4-3.6,7.8c0.2,0.3-0.2,1.5-0.6,1.7c-2.9,1.1-2.6,3.4-3.1,6c-1.7,8.2-1.6,16.5-1,24.7
		c0.3,4.5,7,8.2,11,6.4C288.9,420.6,290.6,420.1,292.2,419.5z"/>
	<path d="M545.9,383.7c0.3,3.7,0.1,7.6,0.9,11.2c2.2,9.9-1.2,19.1-3.7,28.3c-1,3.6-4.5,6.6-6.9,9.8c-0.5,0.7-1.1,1.5-1.8,2
		c-1.2,1-2.5,2-3.9,2.7c-3.4,1.7-6.9,3.3-10.5,4.6c-2,0.7-4.3,1.1-6.3,0.7c-4.5-0.9-8.8-2.3-12.1-6c-2.2-2.5-5.3-4.3-7.2-6.9
		c-1.9-2.6-3.4-5.8-4.1-9c-2.8-13.1-3.4-26.3-1.6-39.6c0.6-4.3,2-8.2,4.4-12.1c3.2-5.2,6-10.6,10.3-14.9c2.5-2.5,5.5-5.1,8.8-6
		c12-3.3,20.6-0.4,27.2,11.9C543.4,367.8,544.5,375.7,545.9,383.7z M500.8,395.9c-0.3,7.1,0.2,13.3,3.3,19c3.1,5.8,5.3,6.7,11.6,5.1
		c2.1-0.5,4.3-0.7,6.5-0.8c4.2-0.2,6.3-3.2,7.2-6.5c1.5-5.8,2.6-11.7,3.2-17.6c1.3-13.3-3.3-20.7-13.4-26c-0.4-0.2-1-0.4-1.5-0.3
		c-4.6,0.8-9.1,2.9-11.4,6.7C502.4,381.9,500.4,389.1,500.8,395.9z"/>
</g>
</svg>
