<?xml version="1.0" encoding="utf-8"?>
<!-- Generator: Adobe Illustrator 20.0.0, SVG Export Plug-In . SVG Version: 6.00 Build 0)  -->
<svg version="1.1" id="Layer_1" xmlns="http://www.w3.org/2000/svg" xmlns:xlink="http://www.w3.org/1999/xlink" x="0px" y="0px"
	 viewBox="0 0 648 452" style="enable-background:new 0 0 648 452;" xml:space="preserve">
<title>Do Book Co.</title>
<path d="M529,91.4c13.4,0.1,25.6-3.6,37.9-5.6c2-7.7-0.3-14.4-0.7-21.4c-0.2-3.3,0.3-7,0.3-10.5s-0.6-7.3-0.3-10.5
	c0.5-4.5,2.2-8.9,4.9-12.5c3.9-4.7,12.9-9.6,20.1-10.9c7.4-1.1,14.9-0.1,21.7,2.9c6.2,3,13,11.2,14.2,21.1c0.9,7.5,0,19.1-1,27.3
	c-0.3,2.5-0.1,6.3-1,8.2c-1.2,2.7-6,3.2-7.6,5.9c-4.2,7.3-0.3,15.8,4.3,20.1c2,2,5.1,1.6,6.6,3.3c1.7,1.9,3,7.9,3.3,11.5
	c0.7,7.5-0.7,15.1-2,22.7c-1.3,7.5-2.7,15.5-5.6,18.8c-6.3,7.3-33.5,13.6-43.8,4c-9.8-9.2-7.6-29.1-11.2-44.8
	c-11.9,1-26.3-0.3-36.6,2.3c2.8,27.9,1.4,58.2,2,87c0.5,24.8-10.3,53.3-24.7,64.6c-7.1,5.6-17,9.6-27,12.5
	c-21.2,6.1-47.6,4.5-70.2-0.3c-12-2.6-24-5.6-32.3-11.9c-13.6-10.3-20.7-30.7-23.4-51.4c-2.9-22.8-5.8-44.4-7.2-67.5
	c-1.4-23.4-0.3-47,3.3-70.2c1.6-10.6,3.9-20.5,7.9-29.3c3.8-8.4,8.6-16.9,15.1-22.1c6.1-4.8,13.9-7.9,21.7-10.5
	c19.2-6.3,46.2-4.9,70.8-3.3c13.9,0.9,26.2,2.9,34.6,8.9C520.4,42.1,524.3,65.6,529,91.4z M592.9,70.3c3.5,1.4,7.4,1,10.5-1
	c5.4-3.8,7.4-21.4,1-26.7c-1.8-1.5-5.1-2.3-8.9-1.6C584.6,42.9,583.5,66.3,592.9,70.3z M399.2,121.1c-2.9,8.2-2.9,24.4-2,36.2
	c1,12,1.7,25.2,5.6,34.3c4.8,11,17.4,19.2,30.3,21.7c18.6,3.6,40-0.8,48.8-15.2c5.9-9.7,6.8-25.9,7.6-41.8
	c0.7-15.9-1.6-32.9-6.9-42.2c-7.7-13.5-27-20.7-48.4-18.8C417.1,96.9,404,107.4,399.2,121.1L399.2,121.1z M607,148.1
	c9.4-7,2.6-28.7-6.6-28.7C580.1,119.6,590.2,160.6,607,148.1L607,148.1z"/>
<path d="M121.5,220.2c-11.1-2.5-26.3-1.5-37.9-0.3c-4.7,13.1-0.8,29.5-2.6,43.5c-0.3,1.9-3.1,6.2-4.3,7.6c-3.8,4.3-8.7,7.3-14.2,8.9
	c-13.6,3.8-28.6,0-35.6-10.2c-3.8-5.6-7.9-15.1-8.9-23.4c-1-7.9,0.1-21.7,4.3-27.3c1.7-2.3,5.2-2.6,7.2-5.6
	c1.6-2.3,3.8-6.9,3.3-10.2c-0.7-5.2-8.1-5.3-11.2-8.9c-3.2-10.4-4.7-18.2-3-29.6c1.3-8.8,2.7-17.7,6.6-24
	c7.1-11.7,30.5-20.8,45.1-11.2c2.2,1.5,4,3.8,5.9,6.3c2,2.5,4.8,4.1,5.6,7.6c3.4,13.6-2,31.4-1,45.8c12.8,2.4,29.6,0.3,41.5-1
	c6-26.8-2.4-52.9-1.3-80.7c0.8-20.4,0.2-42.2-2.6-61.3c-0.9-5.7-4.1-13.9-1.6-17.8c2-3.2,10.4-3.6,15.8-4.3
	c18.2-2.2,38.3-1.3,56.7-3c12.2-1.1,26.2,0.7,37.9,2.6c11.5,1.9,23.2,3.5,33.3,6.3c20.4,5.6,37,17.2,49.1,30.3
	c12.5,13.6,21,31.7,26.4,53c5.1,20.5,9,48,5.9,71.8c-2.8,20.8-9.9,40.7-20.8,58.6c-9.9,16.1-24.1,30.9-41.5,37.9
	c-19.7,7.8-45.7,6.7-72.2,6.6c-18.2-0.1-37.1-1.9-55.3-4c-5.7-0.6-12.7-0.8-17.1-2.6c-9-3.7-12.5-18.6-13.2-30.9
	c-0.3-4.9,1.1-8.9,1.3-13.8C123.4,230.7,121.9,226.2,121.5,220.2z M182.4,98.7c-4.1,4.5-4.3,19.8-4.3,27c0,22,0.6,40,3.3,59.3
	c1.2,9,2.6,19.7,7.9,23.7c3.3,2.5,9.8,3.2,15.8,4c16.6,2.1,42.2,3.1,54-3.3c10.3-5.5,15.8-23.1,18.1-36.2
	c2.7-15.2,2.8-35.5-2.6-47.4c-11.3-24.5-38.6-34.4-75.4-31.6C193.5,94.5,185.8,95,182.4,98.7L182.4,98.7z M40.8,169.2
	c1,8.8,11.7,15.6,18.1,7.2c4-5.1,5.2-18.6,0-24c-1.7-1.8-4.9-2.8-7.9-2.6C42.8,150,39.7,159.7,40.8,169.2z M49,256.8
	c4.8,1.9,10.6-0.7,13.2-4.9c3.8-6.2,3-22.3-3.6-24.7c-1.8-0.7-3.7-0.4-5.9,0C41.5,229.1,38,252.5,49,256.8z"/>
<path d="M120.8,354.3c0.6-3.2,0.7-6.7,2.1-9.5c1.5-3,8.2-8.3,34.2-4.9c7.3,0.6,8.5,2.5,12.4,5.2c4.8,3.2,9.2,6.2,11.6,12
	c2.9,6.9,2.4,15.8-2.6,21.4c-1.9,2.1-4.3,3.9-6.3,5.9c-0.6,0.5-0.9,1.3-0.9,2.1c0.1,0.6,1,1.2,1.7,1.5c4,1.7,7.3,3.9,9.7,7.8
	c3.3,5.4,1.4,10.5-0.2,15.6c-0.9,2.7-2.6,5.1-4.1,7.6c-4.6,7.4-14.3,8.8-24.4,8.8c-8.3-0.1-16.6,0-24.9,0c-5.2,0-8.3-3.1-8.3-8.2
	c0-10.1,0-20.2,0-30.2C121.1,389.3,120.8,354.6,120.8,354.3z M136.6,375.2c-0.2,3.6,1.5,4.3,4.7,4.4c5.1,0.2,14.2-1.3,16.1-1.4
	c7.9-4.9,7.4-11.6,4-18.4c-2.8-5.6-12.6-9.8-18.8-8.4c-1.7,0.4-4.2,2.2-4.4,3.6C137.2,360.9,136.9,370.9,136.6,375.2L136.6,375.2z
	 M140.8,401.3h0.1c0,2.9,0.2,5.9-0.1,8.8c-0.3,3.1,1.2,4.4,3.9,5c6.6,1.6,12.9,0.4,18.8-2.6c1.9-1,4.1-3.4,4.3-5.4
	c0.8-5.8-1.4-10.9-5.9-14.8c-4.2-2.4-6.7-2-12.5-2.6c-2.8-0.3-8.6-0.8-8.6,2.1C140.8,395,140.8,398.2,140.8,401.3L140.8,401.3z"/>
<path d="M189.5,403.4c0.1-11.7,5.2-20.6,15.6-25.8c5.1-2.5,10.7-4.4,16.8-2.3c5,1.7,8,5.7,11,9.4c4.1,5.1,5.4,11.2,6,17.7
	c0.5,5.8-0.5,11.7-3.1,16.9c-1.4,3.1-4,5.9-6.6,8.2c-6.6,6.1-19.8,5-27.4,0.3c-4.1-2.6-3.5-3.3-6.7-6.9
	C190.7,416.2,189.3,409.9,189.5,403.4z M201.8,401.3c0.5,2.8,0.5,5.7,1.5,8.2c1.4,3.8,2.4,8.5,7.4,9.2c5.2,0.7,10.6,0.7,14.1-4.5
	c4.3-6.3,4.2-16.9-0.7-22.5c-1.7-1.9-2.8-4.8-6.1-4.8C209.6,386.6,201.4,392,201.8,401.3L201.8,401.3z"/>
<path d="M419,425.6c-7.8-3.9-15.1-9.5-15.4-20c-0.2-5.4-1.2-10.8-1.5-16.2c-0.1-1.9,0.6-3.9,1-5.8c1.5-9.7,7.3-18.1,15.6-23.2
	c4.1-2.4,8.6-3.9,13.3-4.6c4.9-0.8,9.9-0.8,14.8,0c7.1,1.3,14,3.8,18.5,10.3c1.8,2.6,4,4.8,5.9,7.3c2.8,3.8,1.6,6.8-2.8,7.6
	c-2.6,0.4-5.2,0.6-7.8,0.6c-0.7,0-1.4-0.3-1.8-0.8c-1.6-2.1-3.1-4.4-4.5-6.7c-4.2-7.7-15.3-10.5-21.8-4.7c-0.5,0.4-1,0.8-1.6,1
	c-9,3.9-11,12-12.7,20.5c-1.5,7.1,0.4,12.8,5.9,17.4c2,1.7,4.4,3.4,6.9,4c4.3,1,8.6,1.6,13,1.7c4.6,0.2,8.5-1.9,11.6-5.2
	c1.2-1.5,3-2.3,4.9-2.1c2.6,0.2,5.3,0,7.9,0c2,0,2.8,0.8,1.8,2.7c-3.2,6.4-7.2,12.4-13.6,15.8C450.4,430,431.3,431.7,419,425.6z"/>
<path d="M245.3,406.2c-2.3-3.7-1.4-9.7-0.3-15.5c0.6-3.3,2.5-6.6,4.4-9.5c4.9-7.4,13-10,21.3-7.1c4.6,1.6,9.5,2.8,13.4,5.6
	c6.5,4.5,9.3,11.7,10.2,19.4c1.2,10-2,18.7-9.7,25.1c-4.4,3.6-9.4,6.7-15.8,6.2c-5.2-0.4-8.9-3.5-12.7-6.3
	C250.8,420.1,247.9,414.4,245.3,406.2z M266.8,385.8c-4,1-7.2,2-9,5.5c-3.2,6.2-2.3,12.2,0.6,18.2c1.9,4,5.2,6.2,8.7,8.2
	c3,1.7,11.3-2.4,13.2-6.2c3.4-6.9,1.8-15.5-3.6-21.9C273.9,386.1,270.8,384.1,266.8,385.8L266.8,385.8z"/>
<path d="M318.5,390.7c3.5-3,6.5-5.7,9.6-8.3c3.6-3,7.3-5.9,11-8.8c3.3-2.7,9-0.6,7.6,1.6c-2.2,5.5-4.3,6.6-6.9,10.5
	c-2.1,3.2-3.9,6.6-5.4,10.1c-0.8,1.9-0.9,4,1,5.8c5.2,4.9,8.8,11,12.6,17c2.2,3.5,4.4,7,6.6,10.6c-5.7,0.9-10.8,1.7-16,2.6
	c-2.3,0.4-3.2-0.3-4-2.6c-2.1-6-4.6-11.8-7.2-17.6c-2.1-4.5-7.3-6.9-12.1-5.4c-1.1,0.6-1.8,1.6-2,2.8c0,4,0.2,8,0.5,12
	c0.3,3.7,0.8,8.9-2.8,9.4c-1.1,0.2-3.3-0.2-4.5,0c-1.1,0.2-3.2-0.1-4.8,0.2c-0.4-4.4-0.8-11-0.9-15.5c-0.2-10.5-0.2-21-0.2-31.5
	c0-5,0.5-10,0.5-15.1c0-2.5-0.5-5-0.6-7.5c-0.2-5.3,1.2-7,6.6-7c8.6,0,6.9-2,8.5,7.1c1.2,7.1,1.8,14.3,2.6,21.4
	c0.2,1.5-0.4,3-0.3,4.6C318,388.2,318.2,389.4,318.5,390.7z"/>
<path d="M476.4,401.4c0.2-11.7,5.3-20.6,15.7-25.8c5.1-2.5,10.7-4.4,16.8-2.2c5,1.8,7.9,5.7,11,9.5c4.1,5.1,5.3,11.2,5.9,17.7
	c0.5,5.8-0.6,11.7-3.2,16.9c-1.4,3.1-4,5.8-6.6,8.2c-6.8,6.1-14.6,6.6-22.4,1.8c-4-2.5-8.4-4.9-11.6-8.3
	C477.7,414.4,476.3,408,476.4,401.4z M488.8,399.4c0.5,2.8,0.5,5.7,1.4,8.2c1.4,3.8,3.2,7,7.3,9.2c5.2,0.7,10.6,0.7,14.1-4.5
	c4.3-6.3,5.7-24.6-6.8-27.4C496.6,384.7,488.3,390.1,488.8,399.4L488.8,399.4z"/>
<path d="M534,430.4c-2.5-1.2,0.2-2.9,0.2-5.7s-2.5-4-0.5-6s3.3-0.4,5.8,0.9c3.6,1.8,6.3,1.1,6.3,5.1c0,3.2-3.6,0.8-6,2.8
	C537.1,429.7,536.8,431.8,534,430.4z"/>
</svg>
